<svg xmlns="http://www.w3.org/2000/svg" xmlns:svg="http://www.w3.org/2000/svg" id="svg4764" width="12" height="12" version="1.1"><metadata id="metadata4769"/><g id="layer1" transform="translate(0,-1040.3622)"><g style="display:inline;fill:#636363;fill-opacity:1;opacity:1;image-rendering:auto;stroke:#000;stroke-opacity:1;stroke-width:.5;stroke-miterlimit:4;stroke-dasharray:none" id="triangle-12" transform="translate(29.542373,-130.10169)"><g style="fill:#636363;fill-opacity:1;stroke:#000;stroke-opacity:1;stroke-width:.5;stroke-miterlimit:4;stroke-dasharray:none" id="g21914"><path style="color:#000;font-style:normal;font-variant:normal;font-weight:400;font-stretch:normal;font-size:medium;line-height:normal;font-family:Sans;-inkscape-font-specification:Sans;text-indent:0;text-align:start;text-decoration:none;text-decoration-line:none;letter-spacing:normal;word-spacing:normal;text-transform:none;direction:ltr;block-progression:tb;writing-mode:lr-tb;baseline-shift:baseline;text-anchor:start;display:inline;overflow:visible;visibility:visible;opacity:.3;fill:#636363;fill-opacity:1;fill-rule:nonzero;stroke:#000;stroke-width:.5;stroke-linecap:butt;stroke-linejoin:miter;stroke-miterlimit:4;stroke-dasharray:none;stroke-dashoffset:0;stroke-opacity:1;marker:none;enable-background:accumulate" id="path17844" d="m -23.5,1172.3622 c -0.25,0 -0.363045,0.1197 -0.4375,0.25 l -4,7 c -0.04405,0.077 -0.0625,0.1637 -0.0625,0.25 0,0.375 0.25,0.5001 0.5,0.5 l 8,0 c 0.25,10e-5 0.5,-0.125 0.5,-0.5 0,-0.086 -0.01845,-0.1728 -0.0625,-0.25 l -4,-7 c -0.07446,-0.1303 -0.1875,-0.25 -0.4375,-0.25 z"/><path style="color:#000;font-style:normal;font-variant:normal;font-weight:400;font-stretch:normal;font-size:medium;line-height:normal;font-family:Sans;-inkscape-font-specification:Sans;text-indent:0;text-align:start;text-decoration:none;text-decoration-line:none;letter-spacing:normal;word-spacing:normal;text-transform:none;direction:ltr;block-progression:tb;writing-mode:lr-tb;baseline-shift:baseline;text-anchor:start;display:inline;overflow:visible;visibility:visible;fill:#636363;fill-opacity:1;fill-rule:nonzero;stroke:#000;stroke-width:.5;marker:none;enable-background:accumulate;stroke-opacity:1;stroke-miterlimit:4;stroke-dasharray:none" id="path11349-6" d="m -23.5,1172.3622 c -0.25,0 -0.363045,0.1197 -0.4375,0.25 l -4,7 c -0.04405,0.077 -0.0625,0.1637 -0.0625,0.25 0,0.375 0.25,0.5001 0.5,0.5 l 8,0 c 0.25,10e-5 0.5,-0.125 0.5,-0.5 0,-0.086 -0.01845,-0.1728 -0.0625,-0.25 l -4,-7 c -0.07446,-0.1303 -0.1875,-0.25 -0.4375,-0.25 z"/></g></g></g><rect style="fill:none;stroke:none;visibility:hidden" id="canvas" width="12" height="12" x="0" y="0"/></svg>